<svg xmlns="http://www.w3.org/2000/svg" width="480" height="224" viewBox="0 0 480 224"><path fill="#E81E25" d="M0 32h16v64H0zM32 0v16H16v16h32V0z"/><path fill="#F9C6C7" d="M32 96V48h16V32H16v64zM192 176v-32h96v-16H176v48z"/><path fill="#E81E25" d="M48 32h16v32H48zM64 64h16v32H64zM80 96h16v16H80z"/><path fill="#F9C6C7" d="M96 96h16v16H96z"/><path fill="#E81E25" d="M16 96h16v32H16z"/><path fill="#F59D9F" d="M144 32v32h-16v32h-16v16H80V95.972H64V64H48V48H32v80h32v15.972h16V144h32v-16h32V96h16V32z"/><path fill="#E81E25" d="M32 128h32v16H32zM160 32h16v64h-16zM128 176h16v48h-16zM160 192h16v32h-16zM288 192h16v32h-16zM64 144h48v16H64zM144 0v16h16v16h-32V0zM112 32h16v32h-16zM96 64h16v32H96z"/><path fill="#F9C6C7" d="M128 32h16v32h-16zM112 64h16v32h-16z"/><path fill="#E81E25" d="M144 96h16v32h-16zM112 128h32v16h-32zM304 32h16v64h-16zM336 0v16h-16v16h32V0z"/><path fill="#F9C6C7" d="M336 96V48h16V32h-32v64z"/><path fill="#E81E25" d="M352 32h16v32h-16zM368 64h16v32h-16zM384 96h16v16h-16z"/><path fill="#F9C6C7" d="M400 96h16v16h-16z"/><path fill="#E81E25" d="M320 96h16v32h-16z"/><path fill="#F59D9F" d="M448 32v32h-16v32h-16v16h-32V95.972h-16V64h-16V48h-16v80h32v15.972h16V144h32v-16h32V96h16V32z"/><path fill="#E81E25" d="M336 128h32v16h-32zM464 32h16v64h-16zM368 144h48v16h-48zM448 0v16h16v16h-32V0zM416 32h16v32h-16zM400 64h16v32h-16z"/><path fill="#F9C6C7" d="M432 32h16v32h-16zM416 64h16v32h-16z"/><path fill="#E81E25" d="M448 96h16v32h-16zM416 128h32v16h-32zM160 128v32h-16v16h32v-48zM320 176h16v48h-16zM304 128v32h16v16h-32v-48zM176 176v16h16v32h16v-32h16v32h16v-32h16v32h16v-32h16v-16zM288 112V80h-16v32h-48V80h-16v32h-32v16h112v-16z"/><path fill="#F59D9F" d="M192 144h96v32h-96z"/><path d="M192 48h32v32h-32zM256 48h32v32h-32z"/></svg>